<?xml version="1.0" encoding="UTF-8" standalone="no"?>
<!-- Generator: Adobe Illustrator 16.0.0, SVG Export Plug-In . SVG Version: 6.00 Build 0)  -->

<svg
   xmlns:dc="http://purl.org/dc/elements/1.1/"
   xmlns:cc="http://creativecommons.org/ns#"
   xmlns:rdf="http://www.w3.org/1999/02/22-rdf-syntax-ns#"
   xmlns:svg="http://www.w3.org/2000/svg"
   xmlns="http://www.w3.org/2000/svg"
   xmlns:sodipodi="http://sodipodi.sourceforge.net/DTD/sodipodi-0.dtd"
   xmlns:inkscape="http://www.inkscape.org/namespaces/inkscape"
   version="1.1"
   id="Capa_1"
   x="0px"
   y="0px"
   width="20"
   height="20"
   viewBox="0 0 20 20"
   xml:space="preserve"
   sodipodi:docname="trash.svg"
   inkscape:version="0.92.3 (2405546, 2018-03-11)"><metadata
   id="metadata44"><rdf:RDF><cc:Work
       rdf:about=""><dc:format>image/svg+xml</dc:format><dc:type
         rdf:resource="http://purl.org/dc/dcmitype/StillImage" /><dc:title></dc:title></cc:Work></rdf:RDF></metadata><defs
   id="defs42" /><sodipodi:namedview
   pagecolor="#ffffff"
   bordercolor="#666666"
   borderopacity="1"
   objecttolerance="10"
   gridtolerance="10"
   guidetolerance="10"
   inkscape:pageopacity="0"
   inkscape:pageshadow="2"
   inkscape:window-width="1920"
   inkscape:window-height="1001"
   id="namedview40"
   showgrid="false"
   inkscape:zoom="26.971518"
   inkscape:cx="12.764903"
   inkscape:cy="6.2184217"
   inkscape:window-x="-9"
   inkscape:window-y="-9"
   inkscape:window-maximized="1"
   inkscape:current-layer="Capa_1" />
<g
   id="g7"
   transform="matrix(0.02305048,0,0,0.02305048,0.83715821,0.74726221)">
	<g
   id="_x35_">
		<g
   id="g4">
			<path
   d="M 585.82,235.876 H 209.179 c -39.621,0 -71.728,32.082 -71.728,71.703 l 38.865,412.675 c 0,39.597 32.131,71.703 71.751,71.703 h 304.89 c 39.62,0 71.751,-32.106 71.751,-71.703 L 657.596,307.579 C 657.547,267.958 625.441,235.876 585.82,235.876 Z M 301.839,666.41 c 0,19.786 -16.053,35.814 -35.864,35.814 -19.81,0 -35.863,-16.053 -35.863,-35.814 V 343.467 c 0,-19.786 16.053,-35.888 35.863,-35.888 19.811,0 35.864,16.102 35.864,35.888 z m 125.546,0 c 0,19.786 -16.053,35.814 -35.863,35.814 -19.81,0 -35.863,-16.053 -35.863,-35.814 V 343.467 c 0,-19.786 16.053,-35.888 35.863,-35.888 19.811,0 35.863,16.102 35.863,35.888 z m 125.548,0 c 0,19.786 -16.054,35.814 -35.864,35.814 -19.81,0 -35.863,-16.053 -35.863,-35.814 V 343.467 c 0,-19.786 16.053,-35.888 35.863,-35.888 19.81,0 35.864,16.102 35.864,35.888 z M 190.027,200.013 624.27,88.299 C 648.251,82.151 662.695,57.705 656.522,33.723 650.35,9.741 625.904,-4.702 601.922,1.397 L 468.446,35.748 C 456.077,17.401 433.241,7.765 410.601,13.571 l -52.088,13.443 c -22.641,5.831 -37.986,25.275 -39.987,47.306 l -150.847,38.84 c -23.982,6.148 -38.401,30.594 -32.253,54.576 6.173,24.006 30.619,38.4 54.601,32.277 z"
   id="path2"
   inkscape:connector-curvature="0" />
		</g>
	</g>
</g>
<g
   id="g9"
   transform="translate(0,-771.95697)">
</g>
<g
   id="g11"
   transform="translate(0,-771.95697)">
</g>
<g
   id="g13"
   transform="translate(0,-771.95697)">
</g>
<g
   id="g15"
   transform="translate(0,-771.95697)">
</g>
<g
   id="g17"
   transform="translate(0,-771.95697)">
</g>
<g
   id="g19"
   transform="translate(0,-771.95697)">
</g>
<g
   id="g21"
   transform="translate(0,-771.95697)">
</g>
<g
   id="g23"
   transform="translate(0,-771.95697)">
</g>
<g
   id="g25"
   transform="translate(0,-771.95697)">
</g>
<g
   id="g27"
   transform="translate(0,-771.95697)">
</g>
<g
   id="g29"
   transform="translate(0,-771.95697)">
</g>
<g
   id="g31"
   transform="translate(0,-771.95697)">
</g>
<g
   id="g33"
   transform="translate(0,-771.95697)">
</g>
<g
   id="g35"
   transform="translate(0,-771.95697)">
</g>
<g
   id="g37"
   transform="translate(0,-771.95697)">
</g>
</svg>